<?xml version="1.0" standalone="no"?>
<!DOCTYPE svg PUBLIC "-//W3C//DTD SVG 20010904//EN"
 "http://www.w3.org/TR/2001/REC-SVG-20010904/DTD/svg10.dtd">
<svg version="1.0" xmlns="http://www.w3.org/2000/svg"
 width="300.000000pt" height="300.000000pt" viewBox="0 0 300.000000 300.000000"
 preserveAspectRatio="xMidYMid meet">
<metadata>
Created by potrace 1.11, written by Peter Selinger 2001-2013
</metadata>
<g transform="translate(0.000000,300.000000) scale(0.100000,-0.100000)"
fill="#000000" stroke="none">
<path d="M1488 2585 c-2 -2 -57 -6 -123 -10 -66 -3 -145 -8 -175 -10 -30 -2
-98 -7 -150 -10 -103 -6 -162 -10 -315 -20 -155 -10 -212 -14 -320 -20 -55 -3
-127 -8 -160 -10 -89 -6 -84 12 -88 -299 -1 -126 1 -173 11 -188 14 -19 13
-132 -4 -768 -9 -318 -12 -446 -15 -613 l-3 -158 45 -45 44 -45 260 5 c143 4
357 9 475 12 118 3 301 7 405 9 105 1 194 3 198 4 5 0 22 15 38 32 28 30 35
32 107 34 42 2 178 6 302 9 124 4 270 9 325 11 121 5 493 17 517 17 37 -1 40
21 38 250 -1 123 -3 446 -5 718 -2 272 -4 516 -4 543 -1 61 -23 85 -77 81 -21
-1 -130 -5 -241 -9 l-202 -7 -57 53 c-32 30 -82 78 -112 107 -52 50 -65 55
-127 54 -37 0 -209 -13 -358 -27 l-53 -5 -2 78 c-2 108 -9 131 -54 182 -34 38
-46 45 -79 46 -21 1 -39 0 -41 -1z"/>
</g>
</svg>
